<svg width="8" height="8" viewBox="0 0 8 8" fill="none" xmlns="http://www.w3.org/2000/svg">
<g clip-path="url(#clip0_23_17)">
<path d="M4 0C4.1692 0 4.3064 0.1372 4.3064 0.3064V3.6932H7.6936C7.77492 3.6932 7.8529 3.7255 7.9104 3.783C7.9679 3.8405 8.0002 3.91848 8.0002 3.9998C8.0002 4.08112 7.9679 4.1591 7.9104 4.2166C7.8529 4.2741 7.77492 4.3064 7.6936 4.3064H4.3064V7.6936C4.3064 7.77486 4.27412 7.8528 4.21666 7.91026C4.1592 7.96772 4.08126 8 4 8C3.91874 8 3.8408 7.96772 3.78334 7.91026C3.72588 7.8528 3.6936 7.77486 3.6936 7.6936L3.6932 4.3064H0.3064C0.225138 4.3064 0.147204 4.27412 0.0897425 4.21666C0.0322813 4.1592 0 4.08126 0 4C0 3.91874 0.0322813 3.8408 0.0897425 3.78334C0.147204 3.72588 0.225138 3.6936 0.3064 3.6936L3.6932 3.6932V0.3064C3.69341 0.225133 3.72582 0.147262 3.78332 0.0898349C3.84082 0.0324081 3.91873 0.000105541 4 0Z" fill="black"/>
</g>
<defs>
<clipPath id="clip0_23_17">
<rect width="8" height="8" fill="white"/>
</clipPath>
</defs>
</svg>
